<svg xmlns="http://www.w3.org/2000/svg" viewBox="0 0 100 100">
  <defs>
    <linearGradient id="grad1" x1="0%" y1="0%" x2="100%" y2="100%">
      <stop offset="0%" style="stop-color:#00C6F7;stop-opacity:1" /> <!-- Grid Green -->
      <stop offset="100%" style="stop-color:#FF9100;stop-opacity:1" /> <!-- Exchange Orange -->
    </linearGradient>
  </defs>
  
  <rect width="100" height="100" fill="#023456" /> <!-- Deep Learn Blue -->

  <g fill="url(#grad1)">
    <rect x="15" y="10" width="8" height="80" rx="4" ry="4" />
    <rect x="35" y="10" width="8" height="80" rx="4" ry="4" />
    <rect x="55" y="10" width="8" height="80" rx="4" ry="4" />
    <rect x="75" y="10" width="8" height="80" rx="4" ry="4" />
  </g>

  <g fill="url(#grad1)">
    <rect x="10" y="15" width="18" height="8" rx="4" ry="4" />
    <rect x="30" y="15" width="18" height="8" rx="4" ry="4" />
    <rect x="50" y="15" width="18" height="8" rx="4" ry="4" />
    <rect x="70" y="15" width="18" height="8" rx="4" ry="4" />
    
    <rect x="10" y="46" width="18" height="8" rx="4" ry="4" />
    <rect x="30" y="46" width="18" height="8" rx="4" ry="4" />
    <rect x="50" y="46" width="18" height="8" rx="4" ry="4" />
    <rect x="70" y="46" width="18" height="8" rx="4" ry="4" />
    
    <rect x="10" y="77" width="18" height="8" rx="4" ry="4" />
    <rect x="30" y="77" width="18" height="8" rx="4" ry="4" />
    <rect x="50" y="77" width="18" height="8" rx="4" ry="4" />
    <rect x="70" y="77" width="18" height="8" rx="4" ry="4" />
  </g>
</svg>
